<?xml version="1.0" encoding="UTF-8"?>
<svg id="Layer_1" data-name="Layer 1" xmlns="http://www.w3.org/2000/svg" width="1080" height="1080" viewBox="0 0 1080 1080">
  <defs>
    <style>
      .cls-1 {
        fill: #c1c1c1;
      }

      .cls-2 {
        fill: #767879;
      }

      .cls-3 {
        fill: #d8d0aa;
      }
    </style>
  </defs>
  <g>
    <path class="cls-2" d="M627.99,493.98c.71-1.03-.69-2.32-1.49-2.99-3.66-3.05-15.62-9.36-20.64-12.36-14.2-8.5-29.02-16.06-42.91-25.11-1.29-.7-2.69-.88-3.99-.06-4.74,2.97-10.93,36.41-11.83,43.19-3.4,25.47-1.83,51.51-5.23,76.77-1.18,8.77-7.1,25.23-17.37,26.63-30.85,4.21-38.3-33.55-39.53-56.55-3.48-64.76,2.58-130.39,2.05-195.03-.13-15.5-6.52-30.63-18.05-40.98-17.32-15.56-41.87-17.2-63.49-20.33-20.28-2.94-40.09-8.35-60.6-9.94-4.31-1.43-6.62-3.76-2.71-5.99,4.81-2.75,35.86,4.61,43.42,5.65,65.67,9.04,113.52,4.09,112.41,87.67-.76,57.71-5.52,121.79-2.03,178.95.83,13.51,4.2,43.8,21.62,45.42,9.41.87,10.28-5.07,12.12-12.66,2.12-8.75,1.5-16.29,2.21-24.79,2.62-31.21,2.4-60.98,12.02-90.98.88-2.75,5.02-11.48,5.01-13.01-.05-4.6-13.16-5.59-12.04-12.94,1.19-7.84,14.07-.44,17.56,1.46,28.61,15.55,63.71,35.49,90.8,53.2,3.61,2.36,11.75,6.67,9.23,11.8-3.69,7.51-11.46-1.37-14.24-1.82-4.2-.67-12.38,7.52-14.83,10.78-10.58,14.09-13.09,54.46-17.75,73.25-5.49,22.14-17.03,57.58-39.03,67.97-7.93,3.74-16.85,7.38-25.57,9.3-12.24,2.7-15.46,3-29.33.25-27.71-5.49-49.82-28.84-57.5-55.5-7-56.32.66-113.99-.31-170.77,1.18-27.9,4.17-56.03,5.08-83.92.39-11.88,1.55-22.94-6.41-30.87-2.57-2.56-5.9-4.23-9.47-4.91l-73.4-14.03c-8.27-2.81-5.56-9.51,2.49-8.21,22.56,6.36,53.2,8.95,75.09,15.74,33.38,10.36,21.83,35.26,20.62,61.19-1.47,31.63-1.92,63.4-2.97,95.03-1.23,36.98-5.29,80.5-2.98,117,2.6,41.21,27.62,72.63,71.47,69.49,60.01-4.29,60.57-77.08,70.79-121.21,2.64-11.39,6.27-22.78,14.74-31.26,2.02-2.02,6.75-4.18,6.99-4.53Z"/>
    <path class="cls-1" d="M556,507c.28-5.93,1.15-20.55,8.53-21.98,14.49-2.82,3.66,18.27,1.9,23.96-1.3,4.2-2.24,19.13-2.47,25.48-.95,26.28,3.64,51.77-13.96,74.04-28.7,36.32-71.13,13.46-76.87-27.13-3.26-23.02-2.53-46.77-3.09-69.91-.39-16.2-3.59-43.49-.8-58.72,1.53-8.33,11.54-7.46,12.7.82,2.97,21.31-.75,52.22.02,74.98.47,13.74,1.13,34.74,3.12,47.88,3.16,20.89,18.4,46.75,42.81,34.97,25.77-12.44,26.03-63.23,27.11-88.26.01-1.24-.05-2.95,0-4.04M477.85,451.16c-2.42-1.2-4.25-1.98-4.85,1.34.4,21.33-.53,42.72-.04,64.04.51,22.3.05,67.36,11.02,85.98,12.65,21.47,39.07,28.17,58.06,10.01,27.17-25.97,14.85-72.77,22.21-106.79.56-2.57,4.71-14.3,4.55-15.11-.4-2.09-3.46-3.65-5.32-1.65-2.66,2.87-7.17,27.47-7.52,32.48-1.15,16.37.6,34.13-2.94,49.23-.62,2.65.33,6.58-.13,9.7-2.99,20.38-24.23,43.85-46.58,34.8-29.06-11.78-23.37-49.55-27.35-74.65l-1.11-89.38Z"/>
    <path class="cls-1" d="M505.7,342.2c10.88-3.27,9.55,9.33,9.35,16.34-1.53,54.16-1.8,108.65-2.05,162.95.31,8.97-11.35,12.65-12.94,2.94s-.24-28.45-.11-38.99c.46-37.56,1.7-75.33,3.09-112.91.21-5.56-1.13-25.29.45-28.55.41-.84,1.31-1.52,2.2-1.79ZM507.51,345.01c-1.33.42-1.42,2.27-1.56,3.44-.8,6.93.34,15.81.09,23.09-1.21,35.61-1.24,71.34-2,107-.3,13.99-2.98,30.03-1.09,44.01.78,5.78,5.31,5.79,6.1,0,2.26-16.73-.46-42.12-.09-60.09.26-12.88.79-25.98,1-39,.36-22.57,3.66-53.06,1.09-75.01-.24-2.04-.77-4.31-3.54-3.44Z"/>
    <path class="cls-1" d="M584.1,588.91c-.15.79-.95,2.14-1.44,3.35-2.22,5.49-1.93,14.14-5.9,22-10.62,21.02-24.73,28.96-47.2,31.8-2.09.26-3.73,2.05-6.06,2.03-7.43-.07-12.01-11.13-.9-12.99,25.43-4.27,37.41-8.74,45.89-35.11,8.79-27.29,10.41-87.32,31.87-105.63,5.22-4.45,11.2-.71,10.65,5.05-.24,2.56-6.8,10.05-8.55,13.56-9.2,18.5-8.52,32.55-12.51,51.49-.38,1.8-2.09,9.79-2.16,10.34-.25,2.01-.45,3.25-1.8,7.61M606.99,496c-2.95-2.98-10.58,8.5-11.82,10.67-23.64,41.56-4.65,121.98-65.8,131.2-2.35.36-6.91-.47-8.43.57-1.44.99-1.44,4.11,0,5.1,3.32,2.28,19.34-2.05,23.58-3.52,41.3-14.33,37.21-72.34,46.96-107.04,2.51-8.92,6.18-18.25,10.67-26.33,1.01-1.83,7.54-7.92,4.83-10.66Z"/>
    <path class="cls-1" d="M524.71,402.21c12.11-2.79,13.36,13.26,5.59,15.57-11.97,3.57-16.92-12.97-5.59-15.57ZM525.72,405.15c-4.13,1.12-5.57,7.97-.17,8.86,9.93,1.64,6.78-10.65.17-8.86Z"/>
    <path class="cls-1" d="M524.73,359.2c12.89-2.81,13.73,15.24,2.69,16.81-8.15,1.16-13.33-14.5-2.69-16.81ZM524.71,363.19c-4.26,1.28-3.89,8.47,1.87,8.78,8.31.46,7-11.46-1.87-8.78Z"/>
    <path class="cls-1" d="M523.71,445.21c6.77-2.04,13.84,3.59,10.77,10.78-4.49,10.51-18.86,1.57-15.74-5.7.57-1.33,3.61-4.67,4.97-5.08ZM524.68,448.13c-3.41,1.11-4.24,8.9,1.8,8.94,9.2.06,6.09-11.52-1.8-8.94Z"/>
    <path class="cls-1" d="M477.85,451.16l1.11,89.38c3.98,25.1-1.7,62.87,27.35,74.65,22.35,9.06,43.59-14.42,46.58-34.8.46-3.12-.49-7.05.13-9.7,3.54-15.09,1.79-32.86,2.94-49.23.35-5.01,4.86-29.61,7.52-32.48,1.85-2,4.91-.44,5.32,1.65.16.81-3.99,12.54-4.55,15.11-7.36,34.02,4.96,80.82-22.21,106.79-18.99,18.15-45.42,11.46-58.06-10.01-10.97-18.62-10.51-63.69-11.02-85.98-.48-21.32.44-42.71.04-64.04.6-3.33,2.42-2.54,4.85-1.34Z"/>
    <path class="cls-1" d="M507.51,345.01c2.76-.87,3.3,1.4,3.54,3.44,2.57,21.95-.73,52.44-1.09,75.01-.21,13.02-.74,26.12-1,39-.37,17.97,2.35,43.36.09,60.09-.78,5.79-5.32,5.78-6.1,0-1.89-13.98.79-30.02,1.09-44.01.76-35.66.79-71.39,2-107,.25-7.28-.89-16.16-.09-23.09.14-1.17.23-3.02,1.56-3.44Z"/>
    <path class="cls-1" d="M606.99,496c2.71,2.74-3.82,8.83-4.83,10.66-4.49,8.08-8.16,17.41-10.67,26.33-9.75,34.7-5.66,92.71-46.96,107.04-4.24,1.47-20.26,5.8-23.58,3.52-1.44-.99-1.44-4.11,0-5.1,1.52-1.04,6.07-.22,8.43-.57,61.15-9.22,42.16-89.64,65.8-131.2,1.24-2.17,8.87-13.66,11.82-10.67Z"/>
    <path class="cls-1" d="M525.72,405.15c6.61-1.79,9.76,10.5-.17,8.86-5.4-.89-3.96-7.73.17-8.86Z"/>
    <path class="cls-1" d="M524.71,363.19c8.87-2.67,10.18,9.25,1.87,8.78-5.76-.32-6.13-7.5-1.87-8.78Z"/>
    <path class="cls-1" d="M524.68,448.13c7.89-2.58,11,9.01,1.8,8.94-6.04-.04-5.21-7.83-1.8-8.94Z"/>
  </g>
  <g>
    <path class="cls-3" d="M674.26,587.16c-2.2,1.86-8.85,1.36-10.66-1.32-2.53-3.76-2.12-20.96-6.05-22.92-2.13-1.06-20.94-.85-21.85.66-1.41,5.09-1.65,17.48-4.08,21.39s-10.66,4.89-11.94.76c-.6-1.94,4.83-20.12,5.62-24.07,3.52-17.76,7.26-35.51,11.02-52.92.92-4.26.86-15.57,5.95-17.03,5.9-1.7,13.08-.88,14.81,5.75,5.79,22.21,8.97,45.62,13.71,68.21.81,3.87,6.17,19.22,3.48,21.49ZM648.53,512.48c-2.41,1.06-2.73,4.83-3.32,7.15-2.53,9.91-3.17,20.4-5.71,30.28.55,4.02,4.39,1.39,7.52,1.43,3.69.05,7.67,2.34,9.32-1.55l-7.81-37.32Z"/>
    <path class="cls-3" d="M230.17,521.23c-1.89-1.88-1.02-11.04-2.79-14.7-3.79-7.83-18.25-6.9-21.5,1.37-5.14,13.07,9.04,20.08,16.58,27.51,12.15,11.96,20.4,17.47,18.45,36.5-2.42,23.65-43.37,23.52-47.49,1.56-1.1-5.87-2.93-17.91,5.03-18.12,12.86-.34.32,19.01,14.23,21.84,10.85,2.21,16.88-1.92,16.3-13.22-.97-18.83-39.83-26.69-35.93-55.9,2.17-16.23,17.14-19.34,31.13-17.31,14.27,2.08,19.18,15.01,16.75,28.21-.74,4.01-8.43,4.57-10.75,2.26Z"/>
    <path class="cls-3" d="M477.7,584.91c-.97,3.4-9.31,5.34-11.47.48l-.49-90.37c.41-5.6,11.96-4.14,11.96-.03v29.47c2.05.57,3.37-2.59,4.35-4.14,5.68-8.96,10.56-18.57,16.69-27.28,6.3-2.99,13.77-3.24,9.49,5.5-4.56,9.31-13.34,19.33-18.36,28.59-1.18,2.17-2.54,4.37-3.1,6.81l24.13,47.74c3.11,7.83-6.93,8.72-11.24,3.24-6.64-8.43-12.14-26.21-18.12-35.83l-3.83-2.66v38.46Z"/>
    <path class="cls-3" d="M719.48,493.99c.88-3.15,10.99-4.15,10.99,0v30.47l2.84-1.66,18.42-30.03c6.06-2.3,12.92-3.24,9.61,5.11-2.72,6.84-21.81,32.3-21.81,36.06l25.67,50.12c.75,5.3-8.19,5.24-11.19,2.29l-20.55-39.91c-.74-.54-2.98.9-2.98,1.5v37.96c0,3.03-10.99,3.03-10.99,0v-91.91Z"/>
    <path class="cls-3" d="M288.87,495.49l.5,85.93c.12-27.01,1.57-54.41.5-81.43-.05-1.38.7-4.11-1-4.5,1.09-2.95.81-3.56,4.45-4.04,8.48-1.13,27.78-.59,33.95,6.1,7.22,7.82,7.68,37.07,3.12,45.96-1.87,3.64-8.64,9.44-12.52,10.46-4.46,1.17-14.94-.89-17.11,1.87-2.97,3.76.87,24.29-1.04,29.93-1.48,4.37-12.98,2.97-11.87-3.84,1.89-26.74-2.44-56.72-.05-83.06.18-2.01.6-2.11,1.07-3.38ZM301.5,501.63c-.5.17-.89.35-1.2.8-2,2.86.5,33.44-.3,39.39.99,3.02,15.88,2.65,18.73-1.97,3.36-5.47,3.32-29.86-.86-34.87-3.08-3.69-12.18-4.73-16.37-3.34Z"/>
    <path class="cls-3" d="M846.86,577.42c4.51,1.25,5.51,9.69-2.06,10.93-5.14.84-27.71.84-32.85,0-2.85-.47-5.68-2.23-5.6-5.39,1.83-27.54-2.27-57.82,0-85.01.46-5.54.91-6.03,6.49-6.49,6.82-.57,25.63-.91,31.82.28,5.92,1.14,3.54,9.75,1.19,9.75h-25.98c-2.71,0-.5,6.75-.45,8.45.16,5.32.05,10.74,0,16.07-.03,4.18-3.35,7.3,3.51,8.38,5.23.83,13.3-2.2,16.97,1.01,3.47,3.04,1.56,10.04-2.05,10.04h-18.48v31.97c7.2,1.29,21.21-1.73,27.47,0Z"/>
    <path class="cls-3" d="M390.78,501.49l-.11,31.28c3.46,5.36,25.3-4.66,23.09,8.14-.22,1.29-2.87,4.54-3.5,4.54h-19.48v31.97h26.48c3.51,0,4.62,7.7,2.25,9.75-1.96,1.7-29.86,1.73-34.22,1.24-2.07-.23-6.05-1.04-7.01-2.98l.03-90.91c.56-.61,2.7-3.02,2.98-3.02h35.97c3.26,0,3.26,9.99,0,9.99h-26.48ZM379.79,581.41v-82.92h-1v82.92h1Z"/>
    <path class="cls-3" d="M573.61,584.91c-1.1,3.87-11.07,4.89-12,.01l-.13-81.8c-1.22-3.73-13.12-.11-15.91-2.07-2.17-1.53-1.37-9.7,2.59-9.53,6.49.89,39.21-1.79,42.19,1.21,2.16,2.17,1.13,8.75-1.26,8.75h-15.49v83.42Z"/>
    <path class="cls-3" d="M926.78,577.42c3.87,1.11,5.08,9.31-1.21,10.78-3.99.93-27.47.72-30.2-1.34-.82-.61-1.3-1.43-1.61-2.38l-.46-86.5c-.62-7.2,10.78-9.33,11.98-2.95l-.02,78.95c-.22,1.02.72,3.45,1.55,3.45,4.37,0,16.91-.88,19.98,0Z"/>
    <path class="cls-3" d="M288.87,495.49c1.7.39.94,3.11,1,4.5,1.07,27.02-.38,54.43-.5,81.43l-.5-85.93Z"/>
    <rect class="cls-3" x="378.79" y="498.49" width="1" height="82.92"/>
  </g>
  <g>
    <path d="M660.51,560.79c-2.2,1.86-8.85,1.36-10.66-1.32-2.53-3.76-2.12-20.96-6.05-22.92-2.13-1.06-20.94-.85-21.85.66-1.41,5.09-1.65,17.48-4.08,21.39-2.35,3.78-10.66,4.89-11.94.76-.6-1.94,4.83-20.12,5.62-24.07,3.52-17.76,7.26-35.51,11.02-52.92.92-4.26.86-15.57,5.95-17.03,5.9-1.7,13.08-.88,14.81,5.75,5.79,22.21,8.97,45.62,13.71,68.21.81,3.87,6.17,19.22,3.48,21.49ZM625.8,525.08c3.54-1.19,16.05,2.55,16.62-1.47l-8.14-36.48c-2.2-.04-2.63,5.29-3.02,6.94-2.42,10.15-3.52,20.76-5.46,31.01Z"/>
    <path d="M216.42,494.87c-1.89-1.88-1.02-11.04-2.79-14.7-3.79-7.83-18.25-6.9-21.5,1.37-5.14,13.07,9.04,20.08,16.58,27.51,12.15,11.96,20.4,17.47,18.45,36.5-2.42,23.65-43.37,23.52-47.49,1.56-1.1-5.87-2.93-17.91,5.03-18.12,12.86-.34.32,19.01,14.23,21.84,10.85,2.21,16.88-1.92,16.3-13.22-.97-18.83-39.83-26.69-35.93-55.9,2.17-16.23,17.14-19.34,31.13-17.31,14.27,2.08,19.18,15.01,16.75,28.21-.74,4.01-8.43,4.57-10.75,2.26Z"/>
    <path d="M463.95,558.55c-.97,3.4-9.31,5.34-11.47.48l-.49-90.37c.41-5.6,11.96-4.14,11.96-.03v29.47c1.43-.69,3.06-2.24,3.99-3.5,5.89-7.97,10.67-19.86,17.05-27.91,6.3-2.99,13.77-3.24,9.49,5.5-4.56,9.31-13.34,19.33-18.36,28.59-1.18,2.17-2.54,4.37-3.1,6.81l24.13,47.74c3.11,7.83-6.93,8.72-11.24,3.24-6.64-8.43-12.14-26.21-18.12-35.83l-3.83-2.66v38.46Z"/>
    <path d="M705.73,467.63c.88-3.15,10.99-4.15,10.99,0v30.47l2.84-1.66,18.42-30.03c6.06-2.3,12.92-3.24,9.61,5.11-2.72,6.84-21.81,32.3-21.81,36.06l25.67,50.12c.75,5.3-8.19,5.24-11.19,2.29l-20.55-39.91c-.74-.54-2.98.9-2.98,1.5v37.96c0,3.03-10.99,3.03-10.99,0v-91.91Z"/>
    <path d="M277.82,465.33c2.68-.8,17.26-.53,20.78-.18,12.59,1.25,19.43,7.71,20.53,20.44.65,7.57.84,25.12-2.47,31.57-1.87,3.64-8.64,9.44-12.52,10.46-4.46,1.17-14.94-.89-17.11,1.87-2.97,3.76.87,24.29-1.04,29.93-1.25,3.7-11.04,4.77-11.9-4.81-2.37-26.37,1.88-56.24.02-82.99.05-2.22,1.48-5.61,3.71-6.28ZM287.76,475.26c-.5.17-.89.35-1.2.8-2,2.86.5,33.44-.3,39.39.99,3.02,15.88,2.65,18.73-1.97,3.36-5.47,3.32-29.86-.86-34.87-3.08-3.69-12.18-4.73-16.37-3.34Z"/>
    <path d="M377.03,475.12l-.11,31.28c3.46,5.36,25.3-4.66,23.09,8.14-.22,1.29-2.87,4.54-3.5,4.54h-19.48v31.97h26.48c3.51,0,4.62,7.7,2.25,9.75-1.96,1.7-29.86,1.73-34.22,1.24-2.07-.23-6.05-1.04-7.01-2.98l.03-90.91c.56-.61,2.7-3.02,2.98-3.02h35.97c3.26,0,3.26,9.99,0,9.99h-26.48Z"/>
    <path d="M833.11,551.05c4.51,1.25,5.51,9.69-2.06,10.93-5.14.84-27.71.84-32.85,0-2.85-.47-5.68-2.23-5.6-5.39,1.83-27.54-2.27-57.82,0-85.01.46-5.54.91-6.03,6.49-6.49,6.82-.57,25.63-.91,31.82.28s3.54,9.75,1.19,9.75h-25.98c-2.71,0-.5,6.75-.45,8.45.16,5.32.05,10.74,0,16.07-.03,4.18-3.35,7.3,3.51,8.38,5.23.83,13.3-2.2,16.97,1.01,3.47,3.04,1.56,10.04-2.05,10.04h-18.48v31.97c7.2,1.29,21.21-1.73,27.47,0Z"/>
    <path d="M559.86,558.55c-1.1,3.87-11.07,4.89-12,.01l-.13-81.8c-1.22-3.73-13.12-.11-15.91-2.07-2.17-1.53-1.37-9.7,2.59-9.53,6.49.89,39.21-1.79,42.19,1.21,2.16,2.17,1.13,8.75-1.26,8.75h-15.49v83.42Z"/>
    <path d="M913.04,551.05c3.87,1.11,5.08,9.31-1.21,10.78-3.99.93-27.47.72-30.2-1.34-.82-.61-1.3-1.43-1.61-2.38l-.46-86.5c-.62-7.2,10.78-9.33,11.98-2.95l-.02,78.95c-.22,1.02.72,3.45,1.55,3.45,4.37,0,16.91-.88,19.98,0Z"/>
  </g>
</svg>